<?xml version="1.0" encoding="utf-8"?>
<!-- Generator: Adobe Illustrator 17.1.0, SVG Export Plug-In . SVG Version: 6.00 Build 0)  -->
<!DOCTYPE svg PUBLIC "-//W3C//DTD SVG 1.1//EN" "http://www.w3.org/Graphics/SVG/1.1/DTD/svg11.dtd">
<svg version="1.1" xmlns="http://www.w3.org/2000/svg" xmlns:xlink="http://www.w3.org/1999/xlink" x="0px" y="0px" width="1000px"
	 height="1000px" viewBox="0 0 1000 1000" enable-background="new 0 0 1000 1000" xml:space="preserve">
<g id="Warstwa_3">
	<rect opacity="0" fill="#FFFFFF" width="1000" height="1000"/>
</g>
<g id="Warstwa_2" display="none">
	<rect display="inline" fill="#D2DD26" width="52" height="52"/>
	<rect x="104" y="52" display="inline" fill="#DBE122" width="32" height="32"/>
	<rect x="136" y="52" display="inline" fill="#DBE122" width="32" height="32"/>
</g>
<g id="Warstwa_1">
	<g>
		<path fill="#FFFFFF" d="M27.6,12.6v11.8H39v3H27.6v11.9h-3.2V27.5H13v-3h11.4V12.6H27.6z"/>
	</g>
	<image overflow="visible" width="18" height="25" xlink:href="../../star-active.png"  transform="matrix(1.6 0 0 1.6 52 0)">
	</image>
	<image overflow="visible" width="18" height="25" xlink:href="../../star-active.png"  transform="matrix(1.6 0 0 1.6 85.8 0)">
	</image>
	<image overflow="visible" width="18" height="25" xlink:href="../../star-active.png"  transform="matrix(1.6 0 0 1.6 119.6 0)">
	</image>
	<image overflow="visible" width="18" height="25" xlink:href="../../star-default.png"  transform="matrix(1.6 0 0 1.6 153.4 0)">
	</image>
	<image overflow="visible" width="18" height="25" xlink:href="../../star-default.png"  transform="matrix(1.6 0 0 1.6 187.2 0)">
	</image>
	<image overflow="visible" width="18" height="25" xlink:href="../../star-default.png"  transform="matrix(1.6 0 0 1.6 221 0)">
	</image>
	<circle cx="120" cy="68" r="8"/>
	<image overflow="visible" width="20" height="20" xlink:href="../../prev.png"  transform="matrix(2.6 0 0 2.6 0 52)">
	</image>
	<image overflow="visible" width="20" height="20" xlink:href="../../prev.png"  transform="matrix(-2.6 0 0 -2.6 104 104)">
	</image>
	<image overflow="visible" width="20" height="20" xlink:href="../../next-act.png"  transform="matrix(2.6 0 0 2.6 52 104)">
	</image>
	<image overflow="visible" width="20" height="20" xlink:href="../../next-act.png"  transform="matrix(-2.6 0 0 -2.6 52 156)">
	</image>
	<image overflow="visible" width="42" height="42" xlink:href="../../back.png"  transform="matrix(1 0 0 1 104 84)">
	</image>
	<image overflow="visible" width="21" height="22" xlink:href="../../close.png"  transform="matrix(1 0 0 1 141 57)">
	</image>
</g>
</svg>
